<svg
      version="1.1"
      id="图层_1"
      xmlns="http://www.w3.org/2000/svg"
      xmlns:xlink="http://www.w3.org/1999/xlink"
      x="0px"
      y="0px"
      viewBox="0 0 375 148"
      style="enable-background:new 0 0 375 148;position: absolute;bottom: 0;"
      xml:space="preserve"
    >
      <linearGradient
        id="SVGID_1_"
        gradientUnits="userSpaceOnUse"
        x1="187.5"
        y1="1.3517"
        x2="187.5"
        y2="148"
      >
        <stop offset="0" style="stop-color:var(--argb)" />
        <stop offset="1" style="stop-color:#FFFFFF" />
      </linearGradient>
      <path
        style="fill-rule:evenodd;clip-rule:evenodd;fill:url(#SVGID_1_);opacity:0.15"
        class="st0"
        d="M374,86.6c-0.4,0.8-0.8,1.6-0.4,2.4c0.9,2.3,0.2,4.3-1.2,6.2c-0.3,0.5-0.5,1-0.8,1.5c-0.3,0.6-0.3,1.2,0.4,1.6
	c0.9,0.5,1,1.3,1,2.2c0,8.8,0,17.6,0,26.4c0,1.7-0.2,1.8-2,1.9c-2.7,0.2-5.4,0.4-7.7-1.4c-0.2,0-0.4,0-0.5,0
	c-0.5,0.3-0.4,0.9-0.6,1.3c-0.2,0.7-0.6,0.8-1.1,0.2c-0.1-0.2-0.3-0.4-0.4-0.5c-1.2-0.6-1.9-1.7-3.2-2.3c-0.4-0.2-0.8-0.7-1.3-0.9
	c-0.8-0.3-0.9-0.9-0.3-1.6c0.3-0.3,0.9-0.3,0.9-0.9c-0.8-2.4-1.7-4.6-3.7-6.2c-2.8-2.3-5.3-4.8-8-7.1c-0.5-0.5-1-0.9-1.4-1.4
	c-1.3-1.5-2.8-2.1-4.8-1.9c-2.7,0.3-5.4,0.5-8.1,0.7c-6.7,0.3-13.4,1.1-20,2c-1,0.1-1.9,0.5-2.5,1.3c-0.2,0.3-0.4,0.6-0.6,0.8
	c-1.2,1.5-2.3,3.1-3.7,4.4c-0.6,0.6-1.4,0.8-2.2,0.6c-0.9-0.3-0.7-1.1-0.7-1.7c0-2.1-0.1-4.2,0-6.2c0-1.8,0-3.7,0-5.5
	c0-0.8,0-1.6-0.7-2.1c-1.4-0.3-2.8-0.3-4.2-0.3c-0.5,0-1,0-1.5,0c-0.1,0-0.2,0-0.3,0c-0.6,0-1.1,0-1.5-0.5c-0.3-0.8-0.2-1.5-0.2-2.3
	c0-4.5,0-9.1,0-13.6c0.1-3.5,0-6.9,0-10.4c0-5,0-10.1,0-15.1c0-1.8,0.1-1.9,1.9-1.8c0.5,0,1,0,1.4-0.3c0.6-2.5,0.4-5.1,0.1-7.7
	c-0.4-0.7-1.2-0.8-1.9-0.9c-4.6-0.7-9.2-1.4-13.8-2c-8.7-1.3-17.3-2.6-26-3.8c-2.1-0.3-2.2-0.5-2.2-2.6c0-3.7,0-7.3,0-11
	c0-2.6-0.4-3.3,2.8-2.5c1.7,0.4,2.2-0.1,2.3-1.9c0.1-2.1,0-4.2,0-6.3c0-2-0.4-2.5-2.4-2.9c-2.8-0.5-5.6-1.2-8.5-1.8
	C229.3,8.7,212.1,5.1,195,1.5c-0.6-0.1-1.2-0.2-1.8-0.2c-0.8,0-1.6,0.1-2.4,0.3c-7.7,1.6-15.4,3.2-23.1,4.9
	c-8.1,1.7-16.3,3.3-24.4,5.2c-0.3,0.1-0.5,0.2-0.8,0.2c-4.2,0.7-8.4,1.6-12.6,2.5c-1.2,0.2-2.2,0.8-2.2,2.2c-0.1,2.4-0.1,4.9,0,7.3
	c0.1,1.4,0.7,1.8,2.2,1.7c1.3-0.1,2.6-0.4,3.8-0.7c1.1-0.2,1.7,0.1,1.7,1.3c0,2,0,3.9,0,5.9c0,0.5,0,1-0.5,1.4
	c-0.8,0.8-0.9,1.8-0.9,2.8c0,2.3,0,4.5,0,6.8c0,1.3-0.5,1.7-1.8,1.5c-2.2-0.4-4.5-0.5-6.7-0.8c-0.4,0-0.8-0.1-1.1,0
	c-2.8-0.5-5.7-0.2-8.5-0.9c-0.3-0.1-0.6-0.1-0.9-0.1c-0.9,0-1.8-0.1-2.7-0.2c-2.1-0.1-4.1-0.9-6.2-0.9c-2.9,0-5.8-0.4-8.7-0.8
	c-0.2,0-0.4-0.1-0.6-0.1c-3.8-0.4-7.6-1.5-11.5-0.4c-2.8,0.4-5.6,1-8.5,1.4c-1.8,0.4-3.7,0.7-5.5,0.9c-2.2,0.3-4.4,0.8-6.6,1.2
	c-2.1,0.6-4.3,0.6-6.4,0.9c-2.5,0.5-5,0.8-7.4,1.4c-1.7,0.3-3.4,0.4-5.1,0.7c-1,0.2-2,0.3-2.9,0.5c-0.7,0.2-1.4,0.5-1.5,1.3
	c-0.2,1.6-0.1,3.3-0.1,4.9c0.2,2.1,0.3,2.2,2.5,1.8c2.5-0.5,2.6-0.4,2.6,2.1c0,5.9,0,11.7,0,17.6c0,1.8-0.1,1.9-1.8,1.3
	c-4-1.5-8.2-2-12.3-1.2c-9.3,1.6-15.6,7-19.1,15.7c-0.9,2.3-0.9,2.3-3.4,2.3c-0.1,0-0.2,0-0.3,0c-0.2,0-0.3,0-0.5,0
	c-2.6,0-2.8,0.3-2.8,2.8c0,4.7,0,9.4,0,14c0,1.7-0.2,1.9-1.7,1.1c-1.5-0.7-3-1.4-4.5-1.9V148h375V85.1
	C374.6,85.6,374.3,86.1,374,86.6z M65.3,52.8c3.1-0.5,3.1-0.5,3.1,2.7c0,2.9,0,2.9-2.9,3.4c-2.8,0.4-2.8,0.4-2.8-2.4
	C62.7,53.2,62.7,53.2,65.3,52.8z M56.3,86.2c-0.4-0.5-0.8-1-1.3-1.7c1.3-0.3,2.4-0.4,3.5-0.3C58.7,86.2,58.7,86.2,56.3,86.2z
  M55.8,80c-0.9,0.2-1.4,0.1-1.3-0.8c0.2-2.1,1.9-0.8,2.9-1.3c0.5-0.3,1.3-0.2,1.2,0.8C58.5,80.9,56.5,79.3,55.8,80z M58.9,69.4
	c-0.2,0.4-0.7,0.4-1,0.6c-1.1-0.1-2.2,0.5-3.4,0c-0.4-1.4-0.1-2.8-0.2-4.2c0-0.6,0.3-1.2,0.9-1.2c1-0.1,2-0.5,3-0.3
	c0.2,0.1,0.4,0.2,0.5,0.4C59.2,66.2,59.1,67.8,58.9,69.4z M59,58.9c-0.1,0.5-0.4,1-0.8,0.9c-1.2,0-2.4,0.6-3.6,0.2
	c-0.3-1.5-0.1-3.1-0.2-4.7c0-0.6,0.3-0.9,0.9-1c0.9-0.1,1.8-0.3,2.7-0.4c0.6-0.1,0.9,0.4,1,0.9C59.2,56.3,59.2,57.6,59,58.9z
  M62.7,77.8c1.5-0.7,3.1-0.4,4.7-0.4c1.2,0,0.6,1,0.7,1.7c-1.3,0.1-2.6,0.2-3.8,0.4C62.7,79.7,62.5,79,62.7,77.8z M67.7,85.5
	c-1.6,0.2-3.3,0.7-4.9,0c0-0.4,0-0.9,0-1.3c1.5-0.7,3.2-0.5,4.8-0.7c0.5-0.1,0.7,0.2,0.7,0.7C68.1,84.7,68.3,85.4,67.7,85.5z
  M66.1,68.9c-0.2,0-0.4,0-0.6,0c-0.4,0.2-0.9,0.1-1.3,0.1c-1,0.1-1.3-0.3-1.2-1.2c0.1-0.7,0-1.3,0-2c0-1.9,0.3-2.2,2.1-2.5
	c3.3-0.4,3.5-0.3,3.5,3C68.4,68.6,68.4,68.6,66.1,68.9z M84.1,63.7c0,3.7,0,3.7-3.7,3.8c-0.2-0.2-0.3-0.3-0.3-0.5
	c-0.1-0.7-0.1-1.4-0.1-2.2c0-2.5,1.7-3.4,4.1-2.3C84.1,62.9,84.1,63.3,84.1,63.7z M83,56.8c-3.2,0.4-3.2,0.4-3.2-2.7
	c0-3.3,0-3.3,3.3-3.8c2.9-0.4,2.9-0.4,2.9,2.9C86.1,56.4,86.1,56.4,83,56.8z M99.5,66.3c-0.2,0.3-0.5,0.2-0.8,0.2
	c-0.4-0.1-0.4-0.5-0.5-0.8c0-0.9,0-1.9,0-2.8c0.1-0.1,0.2-0.2,0.3-0.3C99.5,63.1,100.1,65.6,99.5,66.3z M98.8,56.5
	c-1.1-0.2-2.1-0.3-3.2-0.4c-1-1.7-0.5-3.6-0.4-5.4c0-0.7,0.7-0.9,1.3-0.8c1.1,0.3,2.3,0.2,3.4,0.5c0,1.7,0,3.4,0.1,5.1
	C100,56.4,99.7,56.6,98.8,56.5z M105.4,55.5c0,0.4-0.2,0.6-0.6,0.6c-0.5-0.1-0.4-0.5-0.4-0.8c0-1.5,0-3,0-4.6c0.2,0,0.4,0,0.7,0
	C105.8,52.2,105.3,53.9,105.4,55.5z M111.2,56.1c-0.4-0.1-1,0.2-1-0.5c0-1.2,0-2.4,0-3.7c0-0.7,0.6-0.5,1-0.5
	C111.4,52.9,111.3,54.5,111.2,56.1z M119.4,55.5c0,0.6-2.9,1.1-3.2,0.5c-0.5-1-0.3-2.1-0.2-3.1c0.1-0.9,1-0.4,1.5-0.5
	c0.5,0,1,0,1.5,0l0,0C119.7,53.3,119.4,54.4,119.4,55.5z M179.8,26.8c0-3.9,0-3.9,3.8-4.6c1.6-0.3,3.2-0.5,4.8-0.8
	c0.9-0.2,1.3,0,1.3,1c-0.1,2-0.1,3.9,0,5.9c0,0.8-0.3,1.1-1,1.2c-2.7,0.4-5.3,0.8-8,1.3c-0.7,0.1-0.9-0.1-0.9-0.8
	C179.9,29,179.8,27.9,179.8,26.8z M140.4,34c0-0.7-0.1-1.5,0-2.2c0.1-0.7-0.5-1.6,0.4-1.9c1.2-0.5,2.5-0.5,3.8-0.1
	c0.5,0.2,0.4,0.7,0.4,1.2c0,1,0,2,0,3C143.5,34,142,34,140.4,34z M153.3,33.7c-0.7-0.8-0.1-2.8-0.3-4.2c-0.3-1.9,0.6-2.4,2.3-2.6
	c1.7-0.2,3.5-0.5,5.2-0.9c1-0.2,1.5-0.1,1.4,1.1c-0.1,0.9,0,1.8,0,2.7c0,0.1,0,0.1,0,0.2c0,3.9,0,4-4,4
	C156.3,34.1,154.2,34.8,153.3,33.7z M161.9,42.9c-0.1,1.5-0.6,1.9-2.2,1.3c0-1.8,0-3.6,0-5.4c2.1-0.5,2.1-0.4,2.1,1.5
	C161.9,41.3,161.9,42.1,161.9,42.9z M165.9,56c0-0.8,0.1-1.6,0-2.3c0-0.9,0.2-1.3,1.2-1.4c2.3-0.4,2.4-0.3,2.4,2c0,0.6,0,1.2,0,1.8
	C168.3,56.2,167.1,56.2,165.9,56z M174,56.1c0-1.3,0-2.6-0.1-3.9c0-0.8,0.3-1.2,1.1-0.9c0,1.3,0,2.5,0.1,3.8
	C175.1,56,174.8,56.2,174,56.1z M173.6,43.3c-2,0.2-4,0.4-6,0.6c-1,0.1-1.6-0.3-1.5-1.4c0.2-1.5-0.3-3.1,0.2-4.7
	c2.6-0.4,5.2-0.7,7.7-1.1c0.7-0.3,1.2-0.2,1.2,0.7c0,1.3-0.1,2.6,0,3.9C175.2,42.6,174.7,43.2,173.6,43.3z M175.3,24.9
	c-0.1,1,0,1.9,0,2.9c0,3.8,0,3.8-3.6,4.4c-1.6,0.3-3.1,0.4-4.7,0.7c-0.8,0.1-1-0.1-1-0.8c0-2,0-3.9,0-5.9c0-0.7,0.2-1,0.9-1.1
	c2.4-0.4,4.8-0.7,7.2-1.2C175.1,23.6,175.3,24,175.3,24.9z M181.1,56.1c-1.1,0.3-1.5-0.1-1.5-1.2c0.1-1.4,0.1-2.8,0.1-4.1
	c1-0.2,1.4,0.2,1.4,1.2C181,53.3,181.1,54.7,181.1,56.1z M186.1,66.9c-1.8-0.1-0.7-1.7-0.9-2.6c-0.1-0.5,0-1.1,0.1-1.7
	c0.2,0,0.4-0.1,0.6-0.1c1.3-0.1,1.7,0.7,1.4,1.8C187,65.2,188.1,67,186.1,66.9z M188.3,56.3c-3.1,0.6-3.1,0.6-3.1-2.9
	c0-0.2,0-0.3,0-0.5c0-2.7,0.8-3.3,3.5-3c0.6,0.1,0.6,0.4,0.6,0.8c0,1.5,0,3,0,4.6C189.3,55.9,189,56.2,188.3,56.3z M189.8,40
	c0,1-0.4,1.5-1.4,1.6c-2.4,0.2-4.7,0.8-7,0.8c-1,0-1.6-0.2-1.5-1.4c0.1-1.3,0.1-2.6,0-3.9c0-0.7,0.1-1.2,0.9-1.4
	c2.5-0.3,5-0.7,7.4-1c1-0.4,1.6-0.2,1.5,1.1C189.7,37.2,189.7,38.6,189.8,40z M242.5,27.9c0.4,0.1,0.8,0.1,1.2,0.2
	c3.8,0.8,3.8,0.8,3.8,4.6c0,3.8,0,3.8-3.9,3.2c-1.4-0.2-3.3,0.1-4.1-1c-0.7-1-0.2-2.7-0.2-4.1C239.3,27.5,239.3,27.5,242.5,27.9z
  M241.7,40.4c0.6,0.1,1.1,0.2,1.7,0.3c4,0.5,4,0.5,4,4.5v0.5c0,3.6-0.4,3.9-4,2.8c-0.4-0.1-0.8-0.3-1.3-0.4c-3-0.6-3-0.5-3-3.7
	c0-0.6,0-1.2,0-1.9C239.1,40,239.1,40,241.7,40.4z M213.7,58.1L213.7,58.1c0-1.9,0-3.7,0-5.5c0,0,0.1-0.1,0.3-0.5
	C213.9,54.3,214.6,56.2,213.7,58.1z M214,78.7c-0.6-0.4-0.4-0.8-0.1-1.5C214.4,77.9,214.5,78.3,214,78.7z M214,85.5
	c-0.5-1-0.4-1.5-0.2-2.2C214.6,83.9,214.3,84.5,214,85.5z M214,63.5v4.8c-0.8-1.3,0-2.8-0.7-4.1C213.3,63.7,213.5,63.4,214,63.5z
  M205.2,66.9c0,0.4-0.3,0.6-0.7,0.6c-0.2,0-0.5,0-0.7,0c-2.8-0.1-2.8-0.1-2.8-2.8c0-0.7,0-1.5,0.1-2.2c0,0,0,0,0,0h-2.1
	c0.9-0.6,1.7,0,2.4-0.3c1.1,0.1,2.3,0.2,3.4,0.4c0,0.1,0,0.2,0.1,0.3c0,0,0,0,0,0c0,0,0,0,0,0C205.6,64.2,205.1,65.6,205.2,66.9z
  M205.3,52.7c-0.1,1.1-0.1,2.1,0,3.2c0.1,0.9-0.3,1.2-1.1,1.3c-0.1,0-0.2,0-0.3,0c-1.2-0.5-2.5-0.4-3.8-0.6c-0.7-0.1-1-0.4-1-1.1
	c0-1.5,0-2.9,0-4.4c0-1,0.5-1.1,1.3-1c1,0.2,2.1,0.5,3.2,0.5C205.1,50.5,205.4,51.3,205.3,52.7z M208.2,42.2c-0.5,0.5-1,0.4-1.6,0.3
	c-2.2-0.2-4.3-0.7-6.5-1.1c-1.1-0.2-1.6-0.8-1.6-2c0.1-1.5,0-3,0-4.5c0-0.7,0.2-1.2,0.9-0.9c1,0.4,2,0,3,0.4
	c1.6,0.2,3.1,0.5,4.7,0.7c0.8,0.1,1.1,0.5,1.1,1.3C208.2,38.3,208.2,40.3,208.2,42.2z M208.3,30.1c-0.9,0.6-2.7-0.2-4.1-0.4
	c-1.4-0.2-2.8-0.5-4.2-0.7c-1.1-0.1-1.3-0.6-1.3-1.5c0.1-1.9,0.1-3.8,0-5.7c-0.1-1.3,0.4-1.5,1.6-1.3c2.3,0.4,4.6,0.8,6.8,1.2
	c1.1,0.2,1.6,0.6,1.4,1.7c-0.1,0.9,0,1.8,0,3C208.5,27.5,209.3,29.4,208.3,30.1z M214.3,97.3c-0.8,0.2-1.2,0-1.1-0.9
	c0.1-0.7,0.1-1.4,0.1-2.2c0.7-0.1,1.1,0.2,1,0.9C214.3,95.9,214.3,96.6,214.3,97.3z M213.4,42c0-1.2,0-2.5,0-3.7
	c0-2.1,0.1-2.2,2.4-1.9c1.8,0.3,3.7,0.7,5.5,0.8c1.1,0.1,1.4,0.6,1.4,1.6c-0.1,1.9-0.1,3.8-0.1,5.7c-0.5,0.4-1.1,0.3-1.8,0.2
	c-2-0.2-3.9-0.5-5.8-0.9C213.9,43.7,213.4,43,213.4,42z M216.7,55.4c0.1-3.5-0.5-3,3-2.6c2.7,0.3,2.7,0.4,2.7,3.1
	c0,1,0.1,1.9,0.1,2.9c-0.1,0.3-0.4,0.3-0.7,0.3c-1.3-0.5-2.6-0.6-4-0.6c-0.9,0-1.2-0.4-1.1-1.2C216.8,56.6,216.7,56,216.7,55.4z
  M222.5,79.4c-1.4,0-2.9,0-4.3-0.2c-0.6-0.1-1.3,0-1.3-0.9c0-1,0.7-0.8,1.3-0.8c0.2,0,0.4-0.1,0.6-0.1c0.7,0,1.4,0.1,2,0.1
	C222.4,77.3,222.8,78.1,222.5,79.4z M220,64.2c0.8,0,1.7-0.1,2.5,0.4c0,1.5,0,2.9,0,4.4c-1.7,0.3-3.3,0-5-0.2
	c-0.6-0.1-0.7-0.5-0.8-1.1C216.4,64.1,216.4,64,220,64.2z M216.8,97.3c0-0.7,0-1.5,0-2.2c0-0.5,0.3-0.8,0.9-0.8
	c0.5,0,0.7,0.3,0.7,0.8c0,0.7,0,1.5,0,2.2C217.8,97.3,217.3,97.3,216.8,97.3z M220.6,85.8c-1.2-0.2-2.3-0.2-3.5-0.3
	c-0.6-2-0.5-2.2,1.5-2.1c1.3,0.1,2.7-0.1,4,0.4C222.9,85.5,222.2,86,220.6,85.8z M222.4,32.1c-0.9,0.8-2.6-0.1-3.9-0.3
	c-1.6-0.2-3.7,0.1-4.7-1c-1-1.1-0.3-3.1-0.3-4.7c0-3.4,0-3.4,3.3-2.8c1.4,0.3,2.9,0.5,4.3,0.7c1.1,0.1,1.6,0.6,1.5,1.7
	c-0.1,0.8,0,1.7,0,2.8C222.6,29.6,223.3,31.3,222.4,32.1z M226.6,85.8c0-0.5,0-1.1,0-1.6c0.1,0,0.2,0,0.3,0c1,0.3,2.1,0,3,0.4
	C229.4,86.3,227.9,85.8,226.6,85.8z M230.9,79.5c-0.1,1-0.7,0.8-1.3,0.7c-1-0.2-2,0.1-3-0.4c0-0.6,0-1.1,0-1.7
	c1.1,0,2.1,0.1,3.2,0.1C230.7,78.2,231,78.7,230.9,79.5z M230.7,69.3c-0.1,0.6-0.3,1-0.9,0.8c-0.1,0-0.1,0-0.2,0c-3-0.2-3-0.2-3-3.3
	c0-0.7-0.1-1.3-0.1-2l0,0c0.2,0,0.3-0.1,0.5,0C230.9,65,231.3,65.5,230.7,69.3z M226.6,54.4c1.2-0.8,2.4,0,3.6,0.1
	c0.5,0.1,0.5,0.6,0.6,1.1c0.4,4.3,0.4,4.3-4.1,3.8C226.6,57.7,226.6,56.1,226.6,54.4z M235.2,45.9c0,0.7-0.4,1.1-1,1
	c-2.4-0.4-4.8-0.6-7.1-1.2c-0.2-0.1-0.3-0.3-0.5-0.4c0-2,0-4.1-0.1-6.1c0-0.6,0-1.1,0.9-1c2.5,0.5,5.2,0.5,7.6,1.3
	C235.4,41.6,235.1,43.8,235.2,45.9z M235.4,33.3c0.1,0.8-0.3,1.1-1.1,1c-2.3-0.4-4.6-0.7-6.9-1.1c-0.8-0.1-0.9-0.6-0.8-1.2
	c0-1.1,0-2.1,0-3.2c0-4,0-4,4-3.2c1.6,0.3,3.8-0.1,4.6,1.2c0.7,1.2,0.2,3.2,0.2,4.8C235.4,32.2,235.3,32.8,235.4,33.3z M247.4,70.5
	c0,3.9,0,3.9-4,3.6c-1.4-0.1-3.2,0.4-4.1-0.5c-0.8-0.9-0.2-2.7-0.3-4.1c0-3.6,0-3.6,3.7-3.3c0.6,0.1,1.2,0.1,1.9,0.2
	c2.8,0.3,2.8,0.3,2.8,3.1C247.4,69.8,247.4,70.1,247.4,70.5z M243.5,61.5c-1.2-0.1-2.5-0.3-3.7-0.4c-0.6-0.2-0.5-0.8-0.5-1.3
	c0-1.2,0-2.4,0-3.5c0-1.9,0-1.9,1.9-1.8c0.9,0.1,1.5-0.1,2.1-0.8c4.2-0.1,4.2-0.1,4.2,4C247.5,61.8,247.5,61.8,243.5,61.5z
  M259.2,75.1c-1.1-0.1-1.5-0.4-1.4-1.5c0.1-1.6,0.1-3.3,0-4.9c-0.1-1.1,0.3-1.3,1.4-1.2c3.9,0.3,3.9,0.2,3.9,4
	C263,75.4,263,75.3,259.2,75.1z M263,62.1c0,1-0.3,1.2-1.3,1.1c-3.9-0.3-3.9-0.3-3.9-4.2c0-3.8,0-3.7,3.7-3.3
	c1.1,0.1,1.4,0.5,1.4,1.6C263,58.8,263,60.5,263,62.1z M285.4,84c-1.6,0-3.2-0.1-4.7,0c-1.2,0.1-1.1-0.6-1.1-1.4
	c0-0.8,0.1-1.3,1.1-1.1c0.7,0.1,1.5,0.1,2.2,0.2c0,0,0,0,0,0c0.8,0.1,1.7,0.1,2.5,0.1c0.8,0,1.1,0.3,1.1,1.1
	C286.6,83.8,286.2,84,285.4,84z M279.6,73.3c0-3.6,0-3.6,3.5-3.3c3.3,0.2,3.3,0.2,3.3,3.5c0,0.6,0,1.2,0,1.9c0,2.2,0,2.2-2.1,1.9
	c-0.4,0-0.9-0.1-1.3-0.1C279.6,76.8,279.6,76.8,279.6,73.3z M283.2,65.6c-3.5-0.4-3.5-0.4-3.5-4c0-3.5,0-3.5,3.4-3.1
	c3.5,0.4,3.5,0.4,3.5,3.9C286.6,66,286.6,66,283.2,65.6z M335.4,122.6c0-0.3,0-0.7,0-1c0-1.8,0.7-2.3,2.5-1.9c0.6,0.2,0.6,0.5,0.6,1
	c0,1.1,0,2.2,0,3.4c0,1.5-1.3,2.4-2.7,1.7c-0.4-0.2-0.4-0.5-0.4-0.8C335.4,124.1,335.4,123.4,335.4,122.6z M329.1,140.4
	c0-2.5,0-2.5,3-2C332,140.9,331.7,141.1,329.1,140.4z M332.3,131.5c0,0.3,0,0.7,0,1c0,1.8-0.8,2.4-2.6,1.9c-0.6-0.2-0.6-0.6-0.6-1
	c0-1,0-2,0-3c0-1.8,0.8-2.4,2.6-1.9c0.5,0.1,0.6,0.4,0.6,0.9C332.3,130,332.3,130.8,332.3,131.5z M332.3,120.7c0,0.7,0,1.4,0,2
	c0,0.4,0,0.8,0,1.2c0,1.9-0.7,2.4-2.5,1.9c-0.6-0.2-0.6-0.5-0.6-1c0-1.2,0-2.4,0-3.5c0-0.5-0.4-1.3,0.3-1.5c0.8-0.2,1.7-0.1,2.5,0
	C332.4,119.9,332.3,120.4,332.3,120.7z M336.5,140.7c-1.4-0.1-1-1.1-1.3-1.7c0.7-1.7,2-0.5,3-0.7
	C338.1,139.5,338.7,140.9,336.5,140.7z M338.5,129.8c-0.1,0.9,0,1.8,0,2.7c0,1.9-0.7,2.4-2.6,1.9c-0.6-0.1-0.5-0.5-0.5-0.9
	c0-0.7,0-1.5,0-2.2c0-0.4,0.1-0.8,0-1.2c-0.3-1.6,0.5-1.8,1.8-1.8C338.3,128.4,338.6,128.8,338.5,129.8z"
      />
    </svg>